<svg width="24" height="24" viewBox="0 0 24 24" fill="none" xmlns="http://www.w3.org/2000/svg">
<path fill-rule="evenodd" clip-rule="evenodd" d="M4 6C4 4.93913 4.42143 3.92172 5.17157 3.17157C5.92172 2.42143 6.93913 2 8 2H8.09C9.89 2 11.48 3.18 12 4.9C12.255 4.06148 12.7726 3.32705 13.4766 2.80494C14.1805 2.28283 15.0336 2.00065 15.91 2H16C16.7018 2.00072 17.3911 2.18607 17.9986 2.53744C18.6061 2.8888 19.1104 3.39382 19.461 4.00177C19.8116 4.60973 19.9961 5.29923 19.9959 6.00102C19.9957 6.70282 19.8109 7.39222 19.46 8H20C20.5304 8 21.0391 8.21071 21.4142 8.58579C21.7893 8.96086 22 9.46957 22 10V11.5C22 11.6326 21.9473 11.7598 21.8536 11.8536C21.7598 11.9473 21.6326 12 21.5 12H2.5C2.36739 12 2.24021 11.9473 2.14645 11.8536C2.05268 11.7598 2 11.6326 2 11.5V10C2 8.9 2.9 8 4 8H4.54C4.18661 7.39269 4.0003 6.70265 4 6ZM16 8C16.5304 8 17.0391 7.78929 17.4142 7.41421C17.7893 7.03914 18 6.53043 18 6C18 5.46957 17.7893 4.96086 17.4142 4.58579C17.0391 4.21071 16.5304 4 16 4H15.91C14.95 4 14.11 4.65 13.89 5.58L13.29 8H16ZM10.11 5.58L10.71 8H8C7.46957 8 6.96086 7.78929 6.58579 7.41421C6.21071 7.03914 6 6.53043 6 6C6 5.46957 6.21071 4.96086 6.58579 4.58579C6.96086 4.21071 7.46957 4 8 4H8.09C9.05 4 9.89 4.65 10.11 5.58Z" fill="white"/>
<path d="M3 20C3 21.1 3.9 22 5 22H10.5C10.6326 22 10.7598 21.9473 10.8536 21.8536C10.9473 21.7598 11 21.6326 11 21.5V14.5C11 14.3674 10.9473 14.2402 10.8536 14.1464C10.7598 14.0527 10.6326 14 10.5 14H3.5C3.36739 14 3.24021 14.0527 3.14645 14.1464C3.05268 14.2402 3 14.3674 3 14.5V20ZM13.5 22C13.3674 22 13.2402 21.9473 13.1464 21.8536C13.0527 21.7598 13 21.6326 13 21.5V14.5C13 14.22 13.22 14 13.5 14H20.5C20.78 14 21 14.22 21 14.5V20C21 20.5304 20.7893 21.0391 20.4142 21.4142C20.0391 21.7893 19.5304 22 19 22H13.5Z" fill="white"/>
</svg>
