<svg width="48" height="48" viewBox="0 0 48 48" fill="none" xmlns="http://www.w3.org/2000/svg">
<path d="M0 29.2053C0 27.3909 1.47086 25.92 3.28526 25.92H18.7947C20.6091 25.92 22.08 27.3909 22.08 29.2053V44.7147C22.08 46.5291 20.6091 48 18.7947 48H11.04C4.94277 48 0 43.0572 0 36.96V29.2053Z"/>
<path d="M25.9199 4.92789C25.9199 2.20629 28.1262 0 30.8478 0H36.9599C43.0571 0 47.9999 4.94277 47.9999 11.04V36.9599C47.9999 43.0571 43.0571 47.9999 36.9599 47.9999H30.8478C28.1262 47.9999 25.9199 45.7936 25.9199 43.072V4.92789Z"/>
<rect width="22.08" height="22.08" rx="11.04"/>
</svg>
