<svg width="24" height="24" viewBox="0 0 24 24" fill="none" xmlns="http://www.w3.org/2000/svg">
<path d="M13.5 19H15C15 19.7956 14.6839 20.5587 14.1213 21.1213C13.5587 21.6839 12.7956 22 12 22C11.2044 22 10.4413 21.6839 9.87868 21.1213C9.31607 20.5587 9 19.7956 9 19H10.5C10.5 19.3978 10.658 19.7794 10.9393 20.0607C11.2206 20.342 11.6022 20.5 12 20.5C12.3978 20.5 12.7794 20.342 13.0607 20.0607C13.342 19.7794 13.5 19.3978 13.5 19Z" fill="white"/>
<path fill-rule="evenodd" clip-rule="evenodd" d="M20.04 17.5H20.25C20.4489 17.5 20.6397 17.579 20.7803 17.7197C20.921 17.8603 21 18.0511 21 18.25C21 18.4489 20.921 18.6397 20.7803 18.7803C20.6397 18.921 20.4489 19 20.25 19H3.75C3.55109 19 3.36032 18.921 3.21967 18.7803C3.07902 18.6397 3 18.4489 3 18.25C3 18.0511 3.07902 17.8603 3.21967 17.7197C3.36032 17.579 3.55109 17.5 3.75 17.5H3.96C4.96 16.35 5.78 14.8 5.78 11.53V10.23C5.77812 8.81349 6.25978 7.43877 7.14533 6.3332C8.03088 5.22763 9.26726 4.45743 10.65 4.14999C10.5392 3.92132 10.4884 3.66826 10.5022 3.41455C10.516 3.16085 10.5941 2.91481 10.729 2.69952C10.864 2.48423 11.0514 2.30675 11.2737 2.18372C11.496 2.0607 11.7459 1.99615 12 1.99615C12.2541 1.99615 12.504 2.0607 12.7263 2.18372C12.9486 2.30675 13.136 2.48423 13.271 2.69952C13.4059 2.91481 13.484 3.16085 13.4978 3.41455C13.5116 3.66826 13.4608 3.92132 13.35 4.14999C14.7311 4.45706 15.9662 5.22578 16.8515 6.3293C17.7369 7.43282 18.2196 8.8052 18.22 10.22V11.52C18.22 14.79 19.05 16.34 20.04 17.5Z" fill="white"/>
</svg>
