<svg width="144" height="48" viewBox="0 0 144 48" fill="none" xmlns="http://www.w3.org/2000/svg">
<path d="M0 29.2053C0 27.3909 1.47086 25.92 3.28526 25.92H18.7947C20.6091 25.92 22.08 27.3909 22.08 29.2053V44.7147C22.08 46.5291 20.6091 48 18.7947 48H11.04C4.94277 48 0 43.0572 0 36.96V29.2053Z"/>
<path d="M25.9199 4.92789C25.9199 2.20629 28.1262 0 30.8478 0H36.9599C43.0571 0 47.9999 4.94277 47.9999 11.04V36.9599C47.9999 43.0571 43.0571 47.9999 36.9599 47.9999H30.8478C28.1262 47.9999 25.9199 45.7936 25.9199 43.072V4.92789Z"/>
<rect width="22.08" height="22.08" rx="11.04"/>
<path d="M71.466 19.673H78.06V27.59H63.024V19.673H68.568V14.444H71.466V15.578H79.635V18.371H71.466V19.673ZM65.985 24.839H75.12V22.424H65.985V24.839ZM60.882 32.294C61.344 31.594 61.792 30.81 62.226 29.942C62.66 29.06 62.989 28.283 63.213 27.611L65.67 28.619C65.334 29.529 64.655 31.041 63.633 33.155L63.36 33.701L60.882 32.294ZM77.535 27.695C78.025 28.507 78.711 29.739 79.593 31.391L80.055 32.252L77.682 33.617C77.164 32.497 76.324 30.894 75.162 28.808L77.535 27.695ZM73.209 28.178C73.461 28.724 73.741 29.431 74.049 30.299C74.357 31.153 74.609 31.888 74.805 32.504L72.243 33.197C71.949 32.049 71.459 30.628 70.773 28.934L73.209 28.178ZM68.862 28.409C69.198 29.753 69.527 31.23 69.849 32.84L67.119 33.365C66.993 32.315 66.769 31.076 66.447 29.648L66.3 28.913L68.862 28.409ZM92.466 19.673H99.06V27.59H84.024V19.673H89.568V14.444H92.466V15.578H100.635V18.371H92.466V19.673ZM86.985 24.839H96.12V22.424H86.985V24.839ZM81.882 32.294C82.344 31.594 82.792 30.81 83.226 29.942C83.66 29.06 83.989 28.283 84.213 27.611L86.67 28.619C86.334 29.529 85.655 31.041 84.633 33.155L84.36 33.701L81.882 32.294ZM98.535 27.695C99.025 28.507 99.711 29.739 100.593 31.391L101.055 32.252L98.682 33.617C98.164 32.497 97.324 30.894 96.162 28.808L98.535 27.695ZM94.209 28.178C94.461 28.724 94.741 29.431 95.049 30.299C95.357 31.153 95.609 31.888 95.805 32.504L93.243 33.197C92.949 32.049 92.459 30.628 91.773 28.934L94.209 28.178ZM89.862 28.409C90.198 29.753 90.527 31.23 90.849 32.84L88.119 33.365C87.993 32.315 87.769 31.076 87.447 29.648L87.3 28.913L89.862 28.409ZM106.872 19.61C106.144 18.63 105.157 17.363 103.911 15.809L106.095 14.045C106.907 14.913 107.943 16.138 109.203 17.72L106.872 19.61ZM108.762 20.114C109.378 19.722 109.84 19.379 110.148 19.085C110.456 18.777 110.666 18.455 110.778 18.119C110.904 17.783 110.967 17.349 110.967 16.817V14.675H119.556V18.014C119.556 18.294 119.605 18.469 119.703 18.539C119.801 18.609 120.018 18.651 120.354 18.665H121.887L121.446 21.248H119.031C118.177 21.276 117.575 21.15 117.225 20.87C116.889 20.59 116.721 20.072 116.721 19.316V17.195H113.613V17.951C113.613 18.693 113.368 19.428 112.878 20.156C112.388 20.87 111.653 21.479 110.673 21.983L108.762 20.114ZM109.224 26.561L110.085 29.375L105.969 32.924L104.394 30.824C104.576 30.628 104.688 30.432 104.73 30.236C104.786 30.04 104.814 29.76 104.814 29.396V23.012H102.924V20.408H107.565V28.094L109.224 26.561ZM120.879 33.596C118.457 32.644 116.595 31.776 115.293 30.992C113.739 31.972 111.793 32.861 109.455 33.659L108.048 31.16C110.036 30.53 111.653 29.886 112.899 29.228C111.653 28.066 110.589 26.624 109.707 24.902V22.298H120.858V24.923C120.088 26.603 119.017 28.052 117.645 29.27C118.751 29.774 120.221 30.285 122.055 30.803L120.879 33.596ZM112.773 24.902C113.459 26.078 114.264 27.044 115.188 27.8C116.266 26.974 117.12 26.008 117.75 24.902H112.773ZM128.334 19.652C127.774 18.896 126.78 17.622 125.352 15.83L127.536 14.15C128.74 15.508 129.776 16.733 130.644 17.825L128.334 19.652ZM138.204 20.849H142.971V23.684H138.204V33.533H135.264V23.684H130.476V20.849H135.264V14.402H138.204V20.849ZM128.901 28.514L131.505 26.435L132.471 29.207L127.284 33.113L125.583 31.076C125.765 30.908 125.877 30.733 125.919 30.551C125.961 30.369 125.982 30.089 125.982 29.711V23.222H124.134V20.408H128.901V28.514Z"/>
</svg>
